<?xml version="1.0" encoding="UTF-8"?>
<svg version="1.1" xmlns="http://www.w3.org/2000/svg" width="512" height="512">
<path d="M0 0 C1.04671875 0.54785156 2.0934375 1.09570312 3.171875 1.66015625 C11.12745675 6.04292584 18.72323417 10.97852032 26.3203125 15.94921875 C31.47791505 19.3216674 36.67416405 22.63223665 41.875 25.9375 C42.80892578 26.53127441 43.74285156 27.12504883 44.70507812 27.73681641 C51.40078633 31.99065598 58.10631261 36.22881809 64.81591797 40.46069336 C71.82583119 44.88411972 78.81759422 49.33582497 85.80859375 53.7890625 C91.69766667 57.53890697 97.59478596 61.27563229 103.5 65 C111.28298144 69.90865946 119.04777456 74.84545306 126.80859375 79.7890625 C132.69766667 83.53890697 138.59478596 87.27563229 144.5 91 C152.27936924 95.90638127 160.04089956 100.84035323 167.79760742 105.7824707 C173.00442567 109.09848095 178.21780026 112.40361255 183.44140625 115.69311523 C185.77170753 117.1617905 188.09902769 118.63508726 190.42578125 120.109375 C193.55905297 122.09452115 196.70408659 124.05937653 199.85546875 126.015625 C201.40390568 126.98917017 202.95209275 127.96311287 204.5 128.9375 C205.21260986 129.37408936 205.92521973 129.81067871 206.65942383 130.26049805 C210.50639354 132.70112964 213.12693785 134.67918617 215 139 C215 142.125 215 142.125 214 145 C211.8125 146.9375 211.8125 146.9375 209 148 C204.60252748 147.60903844 201.6318837 146.48262156 197.92578125 144.12890625 C197.01119141 143.55462891 196.09660156 142.98035156 195.15429688 142.38867188 C193.74760742 141.4847168 193.74760742 141.4847168 192.3125 140.5625 C191.36310547 139.96373047 190.41371094 139.36496094 189.43554688 138.74804688 C185.9321924 136.53396652 182.44835656 134.29890438 179 132 C176.85771607 131.70529317 176.85771607 131.70529317 174.46321106 131.75949097 C173.53353012 131.75674164 172.60384918 131.75399231 171.64599609 131.75115967 C170.62820068 131.75835022 169.61040527 131.76554077 168.56176758 131.77294922 C167.48843674 131.77265717 166.4151059 131.77236511 165.30924988 131.77206421 C161.75426201 131.77345983 158.19948259 131.78903213 154.64453125 131.8046875 C152.18259292 131.8084168 149.72065311 131.81126416 147.25871277 131.81326294 C140.77316198 131.82090591 134.28770051 131.84056017 127.80218506 131.8626709 C121.18649504 131.883115 114.57079062 131.89226159 107.95507812 131.90234375 C94.97001394 131.92380537 81.98501171 131.95756591 69 132 C69.30292969 132.50337891 69.60585938 133.00675781 69.91796875 133.52539062 C71.29692376 135.83991357 72.64840096 138.1694049 74 140.5 C74.47695313 141.29148438 74.95390625 142.08296875 75.4453125 142.8984375 C78.50983118 148.23945577 79.71627505 151.8332129 79 158 C76.73077752 160.90460477 75.15004537 160.97856495 71.5 161.5 C68 161 68 161 65.98339844 158.80932617 C64.08286541 156.11737226 62.38909972 153.41733808 60.765625 150.55078125 C60.19199219 149.53822266 59.61835938 148.52566406 59.02734375 147.48242188 C58.44082031 146.43634766 57.85429687 145.39027344 57.25 144.3125 C56.64800781 143.25482422 56.04601562 142.19714844 55.42578125 141.10742188 C51 133.25442 51 133.25442 51 131 C37.47 131 23.94 131 10 131 C10 168.62 10 206.24 10 245 C23.2 245 36.4 245 50 245 C50 241.04 50 237.08 50 233 C49.154375 232.938125 48.30875 232.87625 47.4375 232.8125 C40.85998159 231.25781383 36.81290686 227.29922358 33.04296875 221.84375 C29.19453871 215.04053285 29.66826812 208.5139039 29.6875 200.875 C29.67138672 199.58722656 29.65527344 198.29945313 29.63867188 196.97265625 C29.63802734 195.74160156 29.63738281 194.51054687 29.63671875 193.2421875 C29.63224731 191.55391846 29.63224731 191.55391846 29.62768555 189.83154297 C30 187 30 187 31.39770508 185.17236328 C34.13568071 183.16904788 35.86260304 182.87137561 39.20263672 182.85473633 C40.5044136 182.84516655 40.5044136 182.84516655 41.83248901 182.83540344 C42.77206451 182.83429062 43.71164001 182.8331778 44.6796875 182.83203125 C45.64399689 182.82870285 46.60830627 182.82537445 47.60183716 182.82194519 C49.64454673 182.81687636 51.68726461 182.81453685 53.72998047 182.81469727 C56.85528231 182.81251378 59.98022955 182.79436582 63.10546875 182.77539062 C65.08854046 182.77245611 67.07161384 182.7704717 69.0546875 182.76953125 C69.99021454 182.76234573 70.92574158 182.75516022 71.88961792 182.74775696 C72.7637735 182.75083359 73.63792908 182.75391022 74.53857422 182.75708008 C75.30531464 182.75565506 76.07205505 182.75423004 76.86203003 182.75276184 C79.3144468 183.03636311 80.90969501 183.69938446 83 185 C85.19085257 189.38170515 84.27469582 195.25128771 84.3125 200.0625 C84.34150391 201.26583984 84.37050781 202.46917969 84.40039062 203.70898438 C84.46076984 212.213165 83.40043541 218.41950481 78.2890625 225.3046875 C74.05734111 229.29800205 70.12026996 233 64 233 C64 236.96 64 240.92 64 245 C65.46022583 244.97643433 65.46022583 244.97643433 66.94995117 244.95239258 C70.57470367 244.89793761 74.19942026 244.86359374 77.82446289 244.83520508 C79.39093107 244.82015378 80.95735736 244.79970793 82.52368164 244.77368164 C84.78021606 244.73713567 87.03619153 244.72023739 89.29296875 244.70703125 C89.98899704 244.69154739 90.68502533 244.67606354 91.40214539 244.66011047 C95.7604456 244.65861487 98.61554407 245.18339247 102 248 C102.8125 250.1875 102.8125 250.1875 103 252 C106.43897339 251.97722534 109.8746113 251.89996096 113.3125 251.8125 C114.28896484 251.80669922 115.26542969 251.80089844 116.27148438 251.79492188 C118.93976416 251.71239776 121.39616986 251.59343106 124 251 C126.06247007 248.6493453 126.06247007 248.6493453 127 246 C129.96396648 245.01201117 131.94089593 244.86228575 135.03466797 244.83886719 C136.05938202 244.82925964 137.08409607 244.8196521 138.13986206 244.80975342 C139.24612946 244.80550354 140.35239685 244.80125366 141.4921875 244.796875 C142.63027863 244.79117493 143.76836975 244.78547485 144.94094849 244.77960205 C147.35010854 244.77015121 149.75928152 244.76361774 152.16845703 244.75976562 C155.85341937 244.75005686 159.53782477 244.71903219 163.22265625 244.6875 C165.56249669 244.68097023 167.90234111 244.67571966 170.2421875 244.671875 C171.34440643 244.6595282 172.44662537 244.6471814 173.58224487 244.63446045 C175.12877243 244.6389621 175.12877243 244.6389621 176.70654297 244.64355469 C177.61016571 244.63990906 178.51378845 244.63626343 179.4447937 244.63250732 C182.59102391 245.08500173 184.46253531 246.10659129 187 248 C187.89197264 250.67591792 188.13870762 252.27613287 188.17700195 255.02490234 C188.18983719 255.82938812 188.20267242 256.6338739 188.21589661 257.46273804 C188.22328354 258.32839386 188.23067047 259.19404968 188.23828125 260.0859375 C188.246353 260.97987213 188.25442474 261.87380676 188.26274109 262.79483032 C188.2765677 264.68611722 188.28729622 266.57742893 188.29516602 268.46875 C188.31239414 271.35725184 188.3562941 274.24461337 188.40039062 277.1328125 C188.41051667 278.97134576 188.41903305 280.80988874 188.42578125 282.6484375 C188.44328934 283.51004486 188.46079742 284.37165222 188.47883606 285.2593689 C188.47444771 286.47555405 188.47444771 286.47555405 188.4699707 287.71630859 C188.47877007 288.77862198 188.47877007 288.77862198 188.48774719 289.86239624 C187.74069603 293.13642713 186.45106985 294.7228195 184 297 C180.546875 297.48828125 180.546875 297.48828125 176.75 297.3125 C174.85507812 297.24482422 174.85507812 297.24482422 172.921875 297.17578125 C171.95765625 297.11777344 170.9934375 297.05976563 170 297 C170.00444122 297.85777542 170.00888245 298.71555084 170.01345825 299.59931946 C170.05350917 307.67753594 170.08397126 315.75571914 170.10362434 323.83401203 C170.11406779 327.98728478 170.12823719 332.14047559 170.15087891 336.29370117 C170.17258734 340.30074559 170.1845644 344.30771112 170.18975449 348.3148098 C170.19345384 349.84464955 170.20067765 351.37448492 170.21146011 352.90429115 C170.22594863 355.04476933 170.22797908 357.18492025 170.22705078 359.32543945 C170.231492 360.54455521 170.23593323 361.76367096 170.24050903 363.01972961 C170 366 170 366 168 369 C166.35 369.33 164.7 369.66 163 370 C163 376.93 163 383.86 163 391 C164.98 391.66 166.96 392.32 169 393 C170.41945839 395.83891677 170.14298829 398.2473431 170.16113281 401.42163086 C170.16609772 402.08034683 170.17106262 402.73906281 170.17617798 403.41773987 C170.1908014 405.60011839 170.19760133 407.78242426 170.203125 409.96484375 C170.20887567 411.47937523 170.21463341 412.99390668 170.22039795 414.50843811 C170.230908 417.68523498 170.23675084 420.86200654 170.24023438 424.03881836 C170.24572361 428.112336 170.26976043 432.18552013 170.29820633 436.25893307 C170.31681502 439.38758833 170.32203732 442.51616291 170.32357025 445.64486885 C170.3266006 447.14680368 170.33464201 448.64873696 170.34775543 450.1506176 C170.36478212 452.25032953 170.36294476 454.34922195 170.35644531 456.44897461 C170.36009094 457.64429306 170.36373657 458.83961151 170.36749268 460.07115173 C170 463 170 463 168.86658764 464.6594578 C166.15387529 466.60766816 164.0879214 466.37610392 160.7671051 466.37752342 C159.45322532 466.38534666 158.13934553 466.39316991 156.78565121 466.40123022 C155.31876949 466.39474338 153.85188901 466.38797338 152.38500977 466.38095093 C150.83363038 466.38440532 149.28225345 466.38916841 147.73088169 466.39513266 C143.4563935 466.4077024 139.18210522 466.40144528 134.90761614 466.39217401 C130.30223744 466.3854082 125.69689399 466.39585244 121.09152222 466.40411377 C112.06509703 466.41747976 103.03874653 466.41456063 94.01231837 466.40587585 C86.67878908 466.39911096 79.34528078 466.39817739 72.01174927 466.4014473 C70.44835449 466.40213684 70.44835449 466.40213684 68.85337597 466.40284032 C66.73628576 466.40379946 64.61919555 466.4047721 62.50210536 466.4057581 C42.63271499 466.41432039 22.76336609 466.40446472 2.89398253 466.388357 C-14.16868086 466.37495306 -31.23128303 466.37728092 -48.29394531 466.39111328 C-68.09042526 466.4071543 -87.88686884 466.41349634 -107.68335438 466.40427649 C-109.79281934 466.4033208 -111.9022843 466.40237769 -114.01174927 466.4014473 C-115.56874681 466.40075306 -115.56874681 466.40075306 -117.15719885 466.40004479 C-124.48508763 466.39745046 -131.8129534 466.40183542 -139.14083862 466.40888596 C-148.0665475 466.41728475 -156.9921772 466.41505506 -165.91787696 466.39904372 C-170.47516347 466.3911391 -175.03231778 466.38810652 -179.58960342 466.39799118 C-183.756886 466.40689348 -187.92391313 466.40207955 -192.09117234 466.38605852 C-193.60323651 466.38269167 -195.11532202 466.38444718 -196.62737262 466.39168589 C-198.67393555 466.40073619 -200.72055844 466.38970919 -202.7671051 466.37752342 C-203.90653848 466.37703637 -205.04597185 466.37654931 -206.21993351 466.37604749 C-209 466 -209 466 -210.86648446 464.66150647 C-212.69185033 461.98588616 -212.36800201 459.53422032 -212.36076355 456.3372345 C-212.36332682 455.65680153 -212.3658901 454.97636856 -212.36853105 454.27531642 C-212.37348105 451.99035239 -212.35695674 449.70604595 -212.34057617 447.42114258 C-212.33973016 445.78525305 -212.34020454 444.14936238 -212.34190369 442.51347351 C-212.34276607 438.06741261 -212.32510099 433.62159346 -212.30418181 429.17558885 C-212.28545554 424.53110869 -212.28366777 419.88662329 -212.28010559 415.24211121 C-212.2707732 406.44483126 -212.24614329 397.64766287 -212.21605712 388.8504321 C-212.18255023 378.8360585 -212.16603645 368.82167964 -212.15097082 358.80726397 C-212.11959476 338.20478033 -212.06681109 317.60239719 -212 297 C-212.97582031 297.03480469 -213.95164063 297.06960938 -214.95703125 297.10546875 C-216.22933594 297.13253906 -217.50164062 297.15960938 -218.8125 297.1875 C-220.07707031 297.22230469 -221.34164062 297.25710938 -222.64453125 297.29296875 C-226 297 -226 297 -227.88671875 295.61328125 C-230.62998276 291.6379548 -230.18033982 287.68049435 -230.203125 283.01171875 C-230.20882507 282.11636917 -230.21452515 281.22101959 -230.22039795 280.29853821 C-230.2298539 278.40126733 -230.23638429 276.50397999 -230.24023438 274.60668945 C-230.24992639 271.7095047 -230.28093831 268.81303338 -230.3125 265.91601562 C-230.31903143 264.07292088 -230.32428135 262.22982106 -230.328125 260.38671875 C-230.3404718 259.52197433 -230.3528186 258.65722992 -230.36553955 257.76628113 C-230.34818744 253.05969548 -230.17168292 249.75928967 -227 246 C-224.0704293 245.02347643 -222.20884152 244.87650495 -219.15950012 244.87974548 C-218.16250595 244.87837082 -217.16551178 244.87699615 -216.13830566 244.87557983 C-215.04570435 244.87917511 -213.95310303 244.88277039 -212.82739258 244.88647461 C-211.67603317 244.88632858 -210.52467377 244.88618256 -209.33842468 244.8860321 C-205.52377453 244.88673009 -201.7091729 244.89451721 -197.89453125 244.90234375 C-195.25323005 244.90420833 -192.6119285 244.90563205 -189.97062683 244.90663147 C-183.72334171 244.90974052 -177.47607408 244.91794818 -171.22879666 244.92798096 C-164.11641019 244.9391553 -157.00402288 244.94465588 -149.89162982 244.94967639 C-135.2610773 244.96013114 -120.63053948 244.97792361 -106 245 C-106 241.04 -106 237.08 -106 233 C-106.845625 232.938125 -107.69125 232.87625 -108.5625 232.8125 C-115.14001841 231.25781383 -119.18709314 227.29922358 -122.95703125 221.84375 C-126.80546129 215.04053285 -126.33173188 208.5139039 -126.3125 200.875 C-126.32861328 199.58722656 -126.34472656 198.29945313 -126.36132812 196.97265625 C-126.36197266 195.74160156 -126.36261719 194.51054687 -126.36328125 193.2421875 C-126.36626221 192.1166748 -126.36924316 190.99116211 -126.37231445 189.83154297 C-126 187 -126 187 -124.60229492 185.17236328 C-121.86431929 183.16904788 -120.13739696 182.87137561 -116.79736328 182.85473633 C-115.4955864 182.84516655 -115.4955864 182.84516655 -114.16751099 182.83540344 C-113.22793549 182.83429062 -112.28835999 182.8331778 -111.3203125 182.83203125 C-110.35600311 182.82870285 -109.39169373 182.82537445 -108.39816284 182.82194519 C-106.35545327 182.81687636 -104.31273539 182.81453685 -102.27001953 182.81469727 C-99.14471769 182.81251378 -96.01977045 182.79436582 -92.89453125 182.77539062 C-90.91145954 182.77245611 -88.92838616 182.7704717 -86.9453125 182.76953125 C-86.00978546 182.76234573 -85.07425842 182.75516022 -84.11038208 182.74775696 C-83.2362265 182.75083359 -82.36207092 182.75391022 -81.46142578 182.75708008 C-80.69468536 182.75565506 -79.92794495 182.75423004 -79.13796997 182.75276184 C-76.6855532 183.03636311 -75.09030499 183.69938446 -73 185 C-70.80914743 189.38170515 -71.72530418 195.25128771 -71.6875 200.0625 C-71.65849609 201.26583984 -71.62949219 202.46917969 -71.59960938 203.70898438 C-71.53923016 212.213165 -72.59956459 218.41950481 -77.7109375 225.3046875 C-81.94265889 229.29800205 -85.87973004 233 -92 233 C-92 236.96 -92 240.92 -92 245 C-78.8 245 -65.6 245 -52 245 C-52 207.38 -52 169.76 -52 131 C-65.2 131.33 -78.4 131.66 -92 132 C-100.27267416 142.16554489 -100.27267416 142.16554489 -104.89550781 153.24511719 C-106.1644015 156.41005891 -107.63935116 158.54452828 -110 161 C-113.66148608 161.52306944 -116.01626965 161.40358168 -119.4375 160 C-121.41846186 157.46436882 -121.42987161 155.46555872 -121.36743164 152.30859375 C-120.66335798 147.88485918 -118.28297611 144.28850631 -116 140.5 C-115.52304688 139.67757812 -115.04609375 138.85515625 -114.5546875 138.0078125 C-113.38484806 135.99568866 -112.20008336 133.99418107 -111 132 C-125.01346784 131.71785368 -139.0264864 131.50799331 -153.04222584 131.37825394 C-159.5523542 131.31594538 -166.06055872 131.23160499 -172.56958008 131.09472656 C-178.86567928 130.96317262 -185.15994287 130.89234951 -191.45731163 130.86147308 C-193.84502715 130.83950566 -196.23265587 130.7966119 -198.61957741 130.73123932 C-214.86530662 130.30449273 -225.09569169 132.591344 -238.07338524 142.56404877 C-242.13851503 145.59388548 -245.54726359 147.97578773 -250.75 148.0625 C-254 147 -254 147 -256 144.8125 C-257.30030531 141.15539132 -257.41482623 139.64876238 -256 136 C-251.03401223 131.49329433 -245.05583795 128.02503278 -239.375 124.5 C-237.69503588 123.44835843 -236.01536011 122.39625613 -234.3359375 121.34375 C-233.02834473 120.52583984 -233.02834473 120.52583984 -231.69433594 119.69140625 C-227.11522007 116.81680361 -222.55853866 113.90708002 -218 111 C-210.41651957 106.16874876 -202.83012015 101.34220318 -195.2121582 96.56542969 C-190.82003848 93.80606995 -186.46582125 90.998016 -182.13671875 88.140625 C-181.14671875 87.49351563 -180.15671875 86.84640625 -179.13671875 86.1796875 C-177.21143423 84.91996491 -175.29308014 83.64956772 -173.3828125 82.3671875 C-165.12156356 76.98946728 -165.12156356 76.98946728 -160 78 C-159.36634521 78.37737305 -158.73269043 78.75474609 -158.07983398 79.14355469 C-156.04785837 80.23868408 -156.04785837 80.23868408 -154.07714844 79.40429688 C-151.95259728 78.12429434 -149.83965272 76.83649167 -147.75 75.5 C-146.63238281 74.84644531 -146.63238281 74.84644531 -145.4921875 74.1796875 C-143.45481447 72.90353077 -141.6855819 71.71572298 -140 70 C-139.68748325 66.97904025 -139.68748325 66.97904025 -140 64 C-137.03293095 58.84371514 -132.08632685 56.18914282 -127.125 53.1875 C-125.93970703 52.43436523 -125.93970703 52.43436523 -124.73046875 51.66601562 C-120.3463095 48.98518614 -117.28744203 47.2543351 -112 48 C-111.19949219 48.24492188 -110.39898437 48.48984375 -109.57421875 48.7421875 C-105.63313897 49.13689352 -102.99597291 47.19998665 -99.8125 45.125 C-99.17538086 44.71588379 -98.53826172 44.30676758 -97.88183594 43.88525391 C-94.22921151 41.37066105 -94.22921151 41.37066105 -91.99609375 37.640625 C-91.83759706 36.18144911 -91.71251676 34.71806084 -91.62890625 33.25268555 C-90.76208673 30.14781609 -89.36403809 29.44004762 -86.69140625 27.69140625 C-85.78245605 27.09005859 -84.87350586 26.48871094 -83.93701172 25.86914062 C-82.96779785 25.25232422 -81.99858398 24.63550781 -81 24 C-80.05527832 23.39349609 -79.11055664 22.78699219 -78.13720703 22.16210938 C-75.16603911 20.27549511 -72.179931 18.41518476 -69.1875 16.5625 C-67.60473267 15.57963013 -67.60473267 15.57963013 -65.98999023 14.5769043 C-63.91749352 13.29043345 -61.84435868 12.00498989 -59.77050781 10.72070312 C-57.46276629 9.28741424 -55.16229801 7.84399933 -52.8671875 6.390625 C-36.91322336 -3.64189146 -17.89798595 -9.45806742 0 0 Z " fill="#010100" transform="translate(277,25)"/>
<path d="M0 0 C116.82 0 233.64 0 354 0 C354.33 22.44 354.66 44.88 355 68 C357.7018576 71.1490712 357.7018576 71.1490712 361 72 C361 79.59 361 87.18 361 95 C359.35 95.66 357.7 96.32 356 97 C354.71156795 99.5768641 354.83996567 101.48218759 354.79467773 104.36767578 C354.77473251 105.48868683 354.75478729 106.60969788 354.73423767 107.76467896 C354.71752518 108.97928802 354.70081268 110.19389709 354.68359375 111.4453125 C354.6524221 113.30553543 354.6524221 113.30553543 354.62062073 115.20333862 C354.56622295 118.50111823 354.51599905 121.7989272 354.46777344 125.09680176 C354.41754766 128.46172643 354.36192001 131.82656143 354.30664062 135.19140625 C354.19856521 141.79420229 354.09953136 148.39704744 354 155 C339.15 155 324.3 155 309 155 C305.64879357 139.36103664 305.64879357 139.36103664 305 133.8125 C304.32866558 128.3584198 303.54150291 122.93672187 302.66796875 117.51171875 C300.99905631 107.04001954 299.38303995 96.5605452 297.78295898 86.078125 C297.46491875 83.99724732 297.14588178 81.91652177 296.82592773 79.8359375 C296.35706345 76.7867828 295.89108427 73.73719992 295.42578125 70.6875 C295.28207596 69.75639404 295.13837067 68.82528809 294.99031067 67.8659668 C294.85984848 67.00656494 294.72938629 66.14716309 294.5949707 65.26171875 C294.47966507 64.50850342 294.36435944 63.75528809 294.24555969 62.97924805 C294 61 294 61 294 58 C294.74765625 57.97421875 295.4953125 57.9484375 296.265625 57.921875 C297.25046875 57.86515625 298.2353125 57.8084375 299.25 57.75 C300.22453125 57.70359375 301.1990625 57.6571875 302.203125 57.609375 C305.70125948 56.84721162 306.76639078 55.76325513 309 53 C309.61006968 50.42166638 309.61006968 50.42166638 309.53125 47.60546875 C309.53640625 46.56712891 309.5415625 45.52878906 309.546875 44.45898438 C309.53140625 43.37939453 309.5159375 42.29980469 309.5 41.1875 C309.51546875 40.11951172 309.5309375 39.05152344 309.546875 37.95117188 C309.51471733 31.45130276 309.13139768 27.13071303 305 22 C299.64893549 18.29817585 295.84932752 17.41465802 289.421875 17.48242188 C288.59328979 17.4754126 287.76470459 17.46840332 286.91101074 17.46118164 C284.19032613 17.44367272 281.47069396 17.45519878 278.75 17.46875 C276.8486308 17.46605304 274.94726294 17.46216891 273.04589844 17.45715332 C269.06822531 17.4512679 265.09091239 17.45979037 261.11328125 17.47851562 C256.02564824 17.50130457 250.93885939 17.48817636 245.85125732 17.46422577 C241.9271819 17.44974193 238.00330519 17.45438563 234.07922363 17.46473694 C232.2038157 17.46739708 230.32838948 17.46415965 228.45300293 17.45481873 C225.82756048 17.44461037 223.20346745 17.46021323 220.578125 17.48242188 C219.81012573 17.47432495 219.04212646 17.46622803 218.25085449 17.45788574 C212.75251273 17.54364897 209.53647016 18.8619518 205 22 C200.17646798 27.98055429 200.4228096 33.72082267 200.5625 41.1875 C200.55541016 42.26708984 200.54832031 43.34667969 200.54101562 44.45898438 C200.41281663 51.36662667 200.41281663 51.36662667 204 57 C207.13187184 57.65404552 210.10654041 57.74651787 213.2980957 57.88378906 C214.18972412 57.92213867 215.08135254 57.96048828 216 58 C214.67435426 70.14525439 212.94975818 82.19038461 211 94.25 C210.73664961 95.89317638 210.47362796 97.53640549 210.2109375 99.1796875 C209.8272839 101.57925191 209.44341529 103.97877887 209.05822754 106.37809753 C208.00951218 112.91430022 206.99830779 119.45591259 206 126 C205.50394273 129.22979036 205.00352305 132.45886594 204.5 135.6875 C204.38269531 136.45126953 204.26539063 137.21503906 204.14453125 138.00195312 C203.25071892 143.71562439 202.13683204 149.31583981 201 155 C185.16 155 169.32 155 153 155 C149.64879357 139.36103664 149.64879357 139.36103664 149 133.8125 C148.32866558 128.3584198 147.54150291 122.93672187 146.66796875 117.51171875 C144.99905631 107.04001954 143.38303995 96.5605452 141.78295898 86.078125 C141.46491875 83.99724732 141.14588178 81.91652177 140.82592773 79.8359375 C140.35706345 76.7867828 139.89108427 73.73719992 139.42578125 70.6875 C139.28207596 69.75639404 139.13837067 68.82528809 138.99031067 67.8659668 C138.85984848 67.00656494 138.72938629 66.14716309 138.5949707 65.26171875 C138.42201225 64.13189575 138.42201225 64.13189575 138.24555969 62.97924805 C138 61 138 61 138 58 C138.74765625 57.97421875 139.4953125 57.9484375 140.265625 57.921875 C141.74289063 57.83679688 141.74289063 57.83679688 143.25 57.75 C144.22453125 57.70359375 145.1990625 57.6571875 146.203125 57.609375 C149.70125948 56.84721162 150.76639078 55.76325513 153 53 C153.61006968 50.42166638 153.61006968 50.42166638 153.53125 47.60546875 C153.53640625 46.56712891 153.5415625 45.52878906 153.546875 44.45898438 C153.52367187 42.83959961 153.52367187 42.83959961 153.5 41.1875 C153.51546875 40.11951172 153.5309375 39.05152344 153.546875 37.95117188 C153.51471733 31.45130276 153.13139768 27.13071303 149 22 C143.64893549 18.29817585 139.84932752 17.41465802 133.421875 17.48242188 C132.59328979 17.4754126 131.76470459 17.46840332 130.91101074 17.46118164 C128.19032613 17.44367272 125.47069396 17.45519878 122.75 17.46875 C120.8486308 17.46605304 118.94726294 17.46216891 117.04589844 17.45715332 C113.06822531 17.4512679 109.09091239 17.45979037 105.11328125 17.47851562 C100.02564824 17.50130457 94.93885939 17.48817636 89.85125732 17.46422577 C85.9271819 17.44974193 82.00330519 17.45438563 78.07922363 17.46473694 C76.2038157 17.46739708 74.32838948 17.46415965 72.45300293 17.45481873 C69.82756048 17.44461037 67.20346745 17.46021323 64.578125 17.48242188 C63.81012573 17.47432495 63.04212646 17.46622803 62.25085449 17.45788574 C56.75251273 17.54364897 53.53647016 18.8619518 49 22 C44.17646798 27.98055429 44.4228096 33.72082267 44.5625 41.1875 C44.55541016 42.26708984 44.54832031 43.34667969 44.54101562 44.45898438 C44.41281663 51.36662667 44.41281663 51.36662667 48 57 C51.13187184 57.65404552 54.10654041 57.74651787 57.2980957 57.88378906 C58.18972412 57.92213867 59.08135254 57.96048828 60 58 C58.67435426 70.14525439 56.94975818 82.19038461 55 94.25 C54.73664961 95.89317638 54.47362796 97.53640549 54.2109375 99.1796875 C53.8272839 101.57925191 53.44341529 103.97877887 53.05822754 106.37809753 C52.00951218 112.91430022 50.99830779 119.45591259 50 126 C49.50394273 129.22979036 49.00352305 132.45886594 48.5 135.6875 C48.38269531 136.45126953 48.26539063 137.21503906 48.14453125 138.00195312 C47.25071892 143.71562439 46.13683204 149.31583981 45 155 C30.15 155 15.3 155 0 155 C0 103.85 0 52.7 0 0 Z " fill="#B97300" transform="translate(79,322)"/>
<path d="M0 0 C7.26 0 14.52 0 22 0 C22.66 1.65 23.32 3.3 24 5 C26.40233858 7.40233858 26.98352302 7.26257468 30.26611328 7.31884766 C31.14687531 7.33871735 32.02763733 7.35858704 32.93508911 7.37905884 C33.88721283 7.39061005 34.83933655 7.40216125 35.8203125 7.4140625 C36.79410858 7.43342865 37.76790466 7.4527948 38.77120972 7.4727478 C41.88905003 7.53264558 45.00692706 7.57896971 48.125 7.625 C50.23569341 7.66317039 52.34637108 7.70222156 54.45703125 7.7421875 C59.63794012 7.84001741 64.81867641 7.91950519 70 8 C70 15.59 70 23.18 70 31 C-58.04 31 -186.08 31 -318 31 C-318 23.41 -318 15.82 -318 8 C-316.39572269 7.99761165 -314.79144539 7.99522329 -313.13855362 7.99276257 C-275.08012583 7.93543731 -237.02175408 7.86273146 -198.96339299 7.77101372 C-194.2819107 7.75974518 -189.60042811 7.74860679 -184.91894531 7.73754883 C-183.98692275 7.73534514 -183.05490018 7.73314146 -182.0946345 7.730871 C-166.99153966 7.69547167 -151.88844487 7.67062243 -136.78532389 7.64965298 C-121.29506131 7.6279119 -105.80485269 7.59487765 -90.31463599 7.55129844 C-80.75170935 7.52475249 -71.18884999 7.50707882 -61.62588832 7.50065396 C-55.07355905 7.49540906 -48.52131454 7.47922244 -41.96903065 7.45433434 C-38.18529587 7.44028842 -34.40171293 7.43115999 -30.61795044 7.43499184 C-26.52038622 7.43901577 -22.42325518 7.42004698 -18.32574463 7.39872742 C-17.12342013 7.40357499 -15.92109562 7.40842257 -14.68233705 7.41341704 C-13.04016163 7.39923223 -13.04016163 7.39923223 -11.36481094 7.38476086 C-10.41854788 7.38286225 -9.47228482 7.38096365 -8.49734712 7.37900752 C-5.48582326 6.92196645 -4.18203096 6.10430973 -2 4 C-1.34 2.68 -0.68 1.36 0 0 Z " fill="#43528B" transform="translate(380,277)"/>
<path d="M0 0 C3.74817068 1.22374976 4.36061958 2.25965024 6.16601562 5.70532227 C6.70613281 6.7062793 7.24625 7.70723633 7.80273438 8.73852539 C8.36605469 9.8297168 8.929375 10.9209082 9.50976562 12.04516602 C10.74713834 14.34973972 11.98677928 16.65309681 13.22851562 18.95532227 C13.54256348 19.54391022 13.85661133 20.13249817 14.18017578 20.73892212 C17.30109185 26.58032085 20.63952756 32.28280313 24.00976562 37.98266602 C28.7767658 46.09522148 33.43402114 54.260775 38.00976562 62.48266602 C49.01115727 82.26979652 49.01115727 82.26979652 60.6887207 101.66137695 C62.00976562 103.98266602 62.00976562 103.98266602 62.00976562 105.98266602 C20.42976562 105.98266602 -21.15023438 105.98266602 -63.99023438 105.98266602 C-62.53900984 102.35460468 -61.11479252 99.24037817 -59.22460938 95.86938477 C-58.67160156 94.88131836 -58.11859375 93.89325195 -57.54882812 92.87524414 C-56.65357422 91.28873047 -56.65357422 91.28873047 -55.74023438 89.67016602 C-55.11761719 88.5622168 -54.495 87.45426758 -53.85351562 86.31274414 C-49.06909571 77.82689675 -44.17517502 69.40765784 -39.24316406 61.00683594 C-35.069413 53.8806501 -31.0067082 46.6985135 -26.99023438 39.48266602 C-22.16090935 30.81871072 -17.27583052 22.19001651 -12.30273438 13.60766602 C-11.42004883 12.07335937 -11.42004883 12.07335937 -10.51953125 10.50805664 C-9.96974609 9.56381836 -9.41996094 8.61958008 -8.85351562 7.64672852 C-8.13095581 6.40076904 -8.13095581 6.40076904 -7.39379883 5.12963867 C-4.02508908 -0.0233329 -4.02508908 -0.0233329 0 0 Z " fill="#FDD82D" transform="translate(256.990234375,35.017333984375)"/>
<path d="M0 0 C0 3.52599913 -0.84616626 4.87153025 -2.5703125 7.91796875 C-3.12976563 8.91248047 -3.68921875 9.90699219 -4.265625 10.93164062 C-5.18601563 12.54329102 -5.18601563 12.54329102 -6.125 14.1875 C-6.75664062 15.30447266 -7.38828125 16.42144531 -8.0390625 17.57226562 C-12.86492206 26.07975813 -17.78884098 34.52926999 -22.73999023 42.96435547 C-27.52633254 51.1360942 -32.17520846 59.3799495 -36.76757812 67.66210938 C-37.82404706 69.56323367 -38.90361638 71.45170754 -40.006073 73.32653809 C-41.55682927 76.05321855 -42.78104314 78.82591075 -43.97842407 81.72387695 C-49.61769123 94.40687103 -49.61769123 94.40687103 -55.25955391 97.064291 C-61.84943917 98.68518621 -68.57299606 98.18107869 -75.29296875 97.85546875 C-77.45189025 97.81998258 -79.61096592 97.79295968 -81.77009583 97.77400208 C-87.42471786 97.70180914 -93.06990596 97.51558318 -98.7208252 97.30462646 C-104.4981315 97.10943208 -110.27698004 97.02331518 -116.05664062 96.92773438 C-127.37521597 96.72460701 -138.6868207 96.40084204 -150 96 C-146.55775603 93.21405918 -143.10068368 90.69255988 -139.359375 88.3203125 C-137.75255859 87.29744141 -137.75255859 87.29744141 -136.11328125 86.25390625 C-135.00339844 85.55136719 -133.89351562 84.84882813 -132.75 84.125 C-129.49757506 82.06015072 -126.2466768 79.9931928 -123.00195312 77.91625977 C-121.08653208 76.69357436 -119.16399324 75.48192065 -117.23242188 74.28491211 C-116.41837891 73.76936768 -115.60433594 73.25382324 -114.765625 72.72265625 C-113.70263184 72.06148804 -113.70263184 72.06148804 -112.61816406 71.38696289 C-110.60948308 69.92841612 -110.60948308 69.92841612 -110 66.3125 C-110 65.219375 -110 64.12625 -110 63 C-108.85402415 59.56207246 -108.42495511 59.38951806 -105.40234375 57.73046875 C-104.68369141 57.31603516 -103.96503906 56.90160156 -103.22460938 56.47460938 C-101.70187508 55.61766497 -100.17317061 54.77124245 -98.63867188 53.93554688 C-96.58033842 52.7353147 -94.74626182 51.62314659 -93 50 C-92.67187253 46.99213528 -92.67187253 46.99213528 -93 44 C-90.03293095 38.84371514 -85.08632685 36.18914282 -80.125 33.1875 C-78.93970703 32.43436523 -78.93970703 32.43436523 -77.73046875 31.66601562 C-73.3463095 28.98518614 -70.28744203 27.2543351 -65 28 C-63.79537109 28.38671875 -63.79537109 28.38671875 -62.56640625 28.78125 C-58.5586434 29.12285536 -56.04020086 26.75710794 -52.9375 24.5 C-46.59082239 19.91220144 -46.59082239 19.91220144 -43.85766602 20.31835938 C-42 21 -42 21 -41 22 C-36.16921097 22.44759217 -33.5891517 21.57299548 -29.55078125 18.96484375 C-28.53693359 18.31966797 -27.52308594 17.67449219 -26.47851562 17.00976562 C-25.43373047 16.32591797 -24.38894531 15.64207031 -23.3125 14.9375 C-22.28705078 14.28072266 -21.26160156 13.62394531 -20.20507812 12.94726562 C-18.15343695 11.6317787 -16.10537298 10.310695 -14.06103516 8.98388672 C-9.39342969 5.95876612 -4.6964387 2.98008587 0 0 Z " fill="#FABC00" transform="translate(230,45)"/>
<path d="M0 0 C8.15735661 4.17557995 15.76617025 9.00888298 23.42578125 14.01953125 C27.98270619 16.99924678 32.57941462 19.91271695 37.1875 22.8125 C44.13705052 27.18957287 51.07336153 31.58675386 58 36 C64.82456751 40.34733081 71.65589935 44.68348458 78.5 49 C86.28298144 53.90865946 94.04777456 58.84545306 101.80859375 63.7890625 C107.69766882 67.53890834 113.59506161 71.27519305 119.5 75 C121.81601934 76.46289297 124.13188542 77.92602838 126.44775391 79.38916016 C128.28522386 80.54887192 130.12354345 81.70723791 131.96240234 82.86474609 C135.0395252 84.80237265 138.11370838 86.74459434 141.1875 88.6875 C142.16332031 89.30044922 143.13914062 89.91339844 144.14453125 90.54492188 C145.03914062 91.11146484 145.93375 91.67800781 146.85546875 92.26171875 C147.65621826 92.76662842 148.45696777 93.27153809 149.28198242 93.79174805 C149.84892822 94.19047119 150.41587402 94.58919434 151 95 C151 95.33 151 95.66 151 96 C118.99 96 86.98 96 54 96 C47.07 83.625 47.07 83.625 40 71 C34.76121855 62.01916 34.76121855 62.01916 29.5078125 53.046875 C25.27922223 45.79853769 21.21281708 38.46142646 17.14013672 31.12475586 C12.78493017 23.31347818 8.24763444 15.6274383 3.55419922 8.01464844 C3.0851416 7.24797852 2.61608398 6.48130859 2.1328125 5.69140625 C1.71918457 5.02310791 1.30555664 4.35480957 0.87939453 3.66625977 C0 2 0 2 0 0 Z " fill="#FABC00" transform="translate(281,45)"/>
<path d="M0 0 C10.56 0 21.12 0 32 0 C32 38.28 32 76.56 32 116 C21.44 116 10.88 116 0 116 C0 77.72 0 39.44 0 0 Z " fill="#B97301" transform="translate(240,155)"/>
<path d="M0 0 C1.31806641 -0.00315216 2.63613281 -0.00630432 3.99414062 -0.009552 C5.44401075 -0.00776222 6.89388058 -0.00571127 8.34375 -0.00341797 C9.81966162 -0.00409104 11.29557313 -0.0050611 12.77148438 -0.00631714 C15.86850029 -0.00779395 18.96548742 -0.00564011 22.0625 -0.00097656 C26.04083549 0.00472073 30.01910352 0.00144163 33.99743652 -0.00454903 C37.04622917 -0.0081551 40.09500571 -0.00701584 43.14379883 -0.00442123 C44.61108406 -0.00375209 46.07837074 -0.00457994 47.5456543 -0.00690079 C49.59293593 -0.00942804 51.64022266 -0.00489607 53.6875 0 C55.43836914 0.00119339 55.43836914 0.00119339 57.22460938 0.00241089 C59.84375 0.12939453 59.84375 0.12939453 60.84375 1.12939453 C61.15966088 2.80903951 61.41766944 4.49953338 61.65625 6.19189453 C62.34004601 10.86885047 63.07195636 15.53179018 63.86328125 20.19189453 C64.04463623 21.26044678 64.22599121 22.32899902 64.4128418 23.42993164 C64.78051796 25.58738495 65.15043622 27.74445747 65.52270508 29.90112305 C65.69310303 30.9058667 65.86350098 31.91061035 66.0390625 32.94580078 C66.19391113 33.84758057 66.34875977 34.74936035 66.50830078 35.6784668 C66.84375 38.12939453 66.84375 38.12939453 66.84375 42.12939453 C40.44375 42.12939453 14.04375 42.12939453 -13.15625 42.12939453 C-12.28866051 34.3210891 -11.21121575 26.59048804 -9.99951172 18.83349609 C-9.65280397 16.60726739 -9.31264801 14.3800951 -8.97265625 12.15283203 C-8.75300122 10.7387078 -8.53296346 9.32464295 -8.3125 7.91064453 C-8.11462891 6.63253906 -7.91675781 5.35443359 -7.71289062 4.03759766 C-6.74309571 -1.02915541 -4.79891861 0.00327094 0 0 Z " fill="#B77200" transform="translate(307.15625,434.87060546875)"/>
<path d="M0 0 C1.31806641 -0.00315216 2.63613281 -0.00630432 3.99414062 -0.009552 C5.44401075 -0.00776222 6.89388058 -0.00571127 8.34375 -0.00341797 C9.81966162 -0.00409104 11.29557313 -0.0050611 12.77148438 -0.00631714 C15.86850029 -0.00779395 18.96548742 -0.00564011 22.0625 -0.00097656 C26.04083549 0.00472073 30.01910352 0.00144163 33.99743652 -0.00454903 C37.04622917 -0.0081551 40.09500571 -0.00701584 43.14379883 -0.00442123 C44.61108406 -0.00375209 46.07837074 -0.00457994 47.5456543 -0.00690079 C49.59293593 -0.00942804 51.64022266 -0.00489607 53.6875 0 C55.43836914 0.00119339 55.43836914 0.00119339 57.22460938 0.00241089 C59.84375 0.12939453 59.84375 0.12939453 60.84375 1.12939453 C61.15966088 2.80903951 61.41766944 4.49953338 61.65625 6.19189453 C62.34004601 10.86885047 63.07195636 15.53179018 63.86328125 20.19189453 C64.04463623 21.26044678 64.22599121 22.32899902 64.4128418 23.42993164 C64.78051796 25.58738495 65.15043622 27.74445747 65.52270508 29.90112305 C65.69310303 30.9058667 65.86350098 31.91061035 66.0390625 32.94580078 C66.19391113 33.84758057 66.34875977 34.74936035 66.50830078 35.6784668 C66.84375 38.12939453 66.84375 38.12939453 66.84375 42.12939453 C40.44375 42.12939453 14.04375 42.12939453 -13.15625 42.12939453 C-12.28866051 34.3210891 -11.21121575 26.59048804 -9.99951172 18.83349609 C-9.65280397 16.60726739 -9.31264801 14.3800951 -8.97265625 12.15283203 C-8.75300122 10.7387078 -8.53296346 9.32464295 -8.3125 7.91064453 C-8.11462891 6.63253906 -7.91675781 5.35443359 -7.71289062 4.03759766 C-6.74309571 -1.02915541 -4.79891861 0.00327094 0 0 Z " fill="#B77200" transform="translate(151.15625,434.87060546875)"/>
<path d="M0 0 C16.5 0 33 0 50 0 C50.99 5.836875 51.98 11.67375 53 17.6875 C53.31324219 19.52143311 53.62648438 21.35536621 53.94921875 23.24487305 C54.19563632 24.70876714 54.44175038 26.17271238 54.6875 27.63671875 C54.81705078 28.3884436 54.94660156 29.14016846 55.08007812 29.91467285 C55.7134272 33.7116257 56 37.1238772 56 41 C35.54 41 15.08 41 -6 41 C-5.39784548 34.97845483 -4.78180535 29.18127367 -3.80859375 23.2421875 C-3.60806396 22.00839355 -3.40753418 20.77459961 -3.20092773 19.50341797 C-2.94899658 17.97604004 -2.69706543 16.44866211 -2.4375 14.875 C-1.633125 9.96625 -0.82875 5.0575 0 0 Z " fill="#B87300" transform="translate(309,380)"/>
<path d="M0 0 C16.5 0 33 0 50 0 C50.99 5.836875 51.98 11.67375 53 17.6875 C53.31324219 19.52143311 53.62648437 21.35536621 53.94921875 23.24487305 C54.19563632 24.70876714 54.44175038 26.17271238 54.6875 27.63671875 C54.81705078 28.3884436 54.94660156 29.14016846 55.08007812 29.91467285 C55.7134272 33.7116257 56 37.1238772 56 41 C35.54 41 15.08 41 -6 41 C-5.39784548 34.97845483 -4.78180535 29.18127367 -3.80859375 23.2421875 C-3.60806396 22.00839355 -3.40753418 20.77459961 -3.20092773 19.50341797 C-2.94899658 17.97604004 -2.69706543 16.44866211 -2.4375 14.875 C-1.633125 9.96625 -0.82875 5.0575 0 0 Z " fill="#B87300" transform="translate(153,380)"/>
<path d="M0 0 C1.11433914 0.00303635 1.11433914 0.00303635 2.25119019 0.00613403 C3.41942825 0.00350555 3.41942825 0.00350555 4.61126709 0.00082397 C7.19829505 -0.00359493 9.78525522 -0.00065643 12.37228394 0.00271606 C14.16207899 0.00204304 15.95187396 0.00107302 17.7416687 -0.00018311 C21.49778105 -0.00166013 25.25386966 0.00049462 29.00997925 0.00515747 C33.83578887 0.01085476 38.66154288 0.00757578 43.48735046 0.00158501 C47.18466616 -0.00202048 50.88196858 -0.00088208 54.57928467 0.0017128 C56.35917162 0.0023821 58.13905975 0.00155353 59.91894531 -0.00076675 C62.40212216 -0.00329309 64.88520768 0.00054702 67.36837769 0.00613403 C68.11127045 0.0041098 68.85416321 0.00208557 69.61956787 0 C74.69552132 0.02126595 74.69552132 0.02126595 75.80978394 1.13552856 C75.80978394 5.09552856 75.80978394 9.05552856 75.80978394 13.13552856 C48.74978394 13.13552856 21.68978394 13.13552856 -6.19021606 13.13552856 C-6.19021606 0.0259342 -6.19021606 0.0259342 0 0 Z " fill="#FDD72D" transform="translate(299.1902160644531,352.8644714355469)"/>
<path d="M0 0 C1.11433914 0.00303635 1.11433914 0.00303635 2.25119019 0.00613403 C3.41942825 0.00350555 3.41942825 0.00350555 4.61126709 0.00082397 C7.19829505 -0.00359493 9.78525522 -0.00065643 12.37228394 0.00271606 C14.16207899 0.00204304 15.95187396 0.00107302 17.7416687 -0.00018311 C21.49778105 -0.00166013 25.25386966 0.00049462 29.00997925 0.00515747 C33.83578887 0.01085476 38.66154288 0.00757578 43.48735046 0.00158501 C47.18466616 -0.00202048 50.88196858 -0.00088208 54.57928467 0.0017128 C56.35917162 0.0023821 58.13905975 0.00155353 59.91894531 -0.00076675 C62.40212216 -0.00329309 64.88520768 0.00054702 67.36837769 0.00613403 C68.11127045 0.0041098 68.85416321 0.00208557 69.61956787 0 C74.69552132 0.02126595 74.69552132 0.02126595 75.80978394 1.13552856 C75.80978394 5.09552856 75.80978394 9.05552856 75.80978394 13.13552856 C48.74978394 13.13552856 21.68978394 13.13552856 -6.19021606 13.13552856 C-6.19021606 0.0259342 -6.19021606 0.0259342 0 0 Z " fill="#FDD72D" transform="translate(143.19021606445313,352.8644714355469)"/>
<path d="M0 0 C8.58 0 17.16 0 26 0 C26 13.82142857 26 13.82142857 23 18 C19.75953856 20.93666818 17.06485065 21.89954239 12.6875 22.3125 C8.24113718 21.93568959 6.36051878 20.90226622 3 18 C-1.4663579 12.04485614 0 8.31054668 0 0 Z " fill="#DBF1FB" transform="translate(321,223)"/>
<path d="M0 0 C8.58 0 17.16 0 26 0 C26 13.82142857 26 13.82142857 23 18 C19.75953856 20.93666818 17.06485065 21.89954239 12.6875 22.3125 C8.24113718 21.93568959 6.36051878 20.90226622 3 18 C-1.4663579 12.04485614 0 8.31054668 0 0 Z " fill="#DBF1FB" transform="translate(165,223)"/>
<path d="M0 0 C3 2 3 2 4.125 5.75 C4.296875 7.921875 4.296875 7.921875 4 10 C1.65566468 12.67924036 -0.07366578 14.09458946 -3 16 C-4.02867187 16.69738281 -5.05734375 17.39476563 -6.1171875 18.11328125 C-11.6511346 21.73736715 -16.19436057 24.70832974 -23 25 C-26 22.9375 -26 22.9375 -28 20 C-28.375 17.125 -28.375 17.125 -27 14 C-20.51027125 7.41908068 -9.54313405 -1.0691478 0 0 Z " fill="#030200" transform="translate(165,73)"/>
</svg>
